<svg xmlns="http://www.w3.org/2000/svg" xmlns:xlink="http://www.w3.org/1999/xlink" width="1920" height="1080" viewBox="0 0 1920 1080">
    <defs>
        <linearGradient id="a" x1="57.591%" x2="46.823%" y1="65.82%" y2="20.705%">
            <stop offset="0%" stop-color="#030D17"/>
            <stop offset="100%" stop-color="#1A435F"/>
        </linearGradient>
        <path id="b" d="M14.32.23c7.832 0 14.168 6.327 14.168 14.12 0 7.814-6.336 14.142-14.168 14.142C6.5 28.492.16 22.164.16 14.35"/>
        <path id="d" d="M15.051.23c7.82 0 14.16 6.327 14.16 14.12 0 7.814-6.34 14.142-14.16 14.142C7.235 28.492.903 22.164.903 14.35"/>
        <path id="f" d="M14.685.23c7.82 0 14.156 6.327 14.156 14.12 0 7.814-6.335 14.142-14.156 14.142-7.82 0-14.164-6.328-14.164-14.142"/>
        <path id="h" d="M14.312.23c7.824 0 14.164 6.327 14.164 14.12 0 7.814-6.34 14.142-14.164 14.142C6.496 28.492.156 22.164.156 14.35"/>
        <path id="j" d="M15.047.23c7.82 0 14.16 6.327 14.16 14.12 0 7.814-6.34 14.15-14.16 14.15S.887 22.164.887 14.35"/>
        <path id="l" d="M14.677.23c7.82 0 14.16 6.327 14.16 14.12 0 7.814-6.34 14.142-14.16 14.142C6.85 28.492.51 22.164.51 14.35"/>
        <path id="n" d="M14.308.23c7.824 0 14.16 6.327 14.16 14.12 0 7.814-6.336 14.142-14.16 14.142C6.479 28.492.144 22.164.144 14.35"/>
        <path id="p" d="M15.039.23c7.824 0 14.164 6.327 14.164 14.12 0 7.814-6.34 14.142-14.164 14.142C7.214 28.492.883 22.164.883 14.35"/>
        <path id="r" d="M14.67.23c7.815 0 14.155 6.327 14.155 14.12 0 7.814-6.34 14.142-14.156 14.142C6.857 28.492.505 22.164.505 14.35"/>
        <path id="t" d="M14.32.131c7.832 0 14.168 6.332 14.168 14.133 0 7.806-6.336 14.142-14.168 14.142C6.5 28.406.16 22.07.16 14.264"/>
        <path id="v" d="M15.051.131c7.82 0 14.16 6.332 14.16 14.133 0 7.806-6.34 14.142-14.16 14.142C7.235 28.406.903 22.07.903 14.264"/>
        <path id="x" d="M14.685.131c7.82 0 14.156 6.32 14.156 14.133 0 7.806-6.335 14.142-14.156 14.142-7.82 0-14.164-6.336-14.164-14.142"/>
        <path id="z" d="M14.312.131c7.824 0 14.164 6.332 14.164 14.133 0 7.806-6.34 14.142-14.164 14.142C6.496 28.406.156 22.07.156 14.264"/>
        <path id="B" d="M15.047.131c7.82 0 14.16 6.332 14.16 14.133 0 7.806-6.34 14.142-14.16 14.142S.887 22.07.887 14.264"/>
        <path id="D" d="M14.677.131c7.82 0 14.16 6.332 14.16 14.133 0 7.806-6.34 14.142-14.16 14.142C6.85 28.406.51 22.07.51 14.264"/>
        <path id="F" d="M14.308.131c7.824 0 14.16 6.332 14.16 14.133 0 7.806-6.336 14.142-14.16 14.142C6.479 28.406.144 22.07.144 14.264"/>
        <path id="H" d="M14.67.131c7.815 0 14.155 6.332 14.155 14.133 0 7.806-6.34 14.142-14.156 14.142C6.857 28.406.505 22.07.505 14.264"/>
        <path id="J" d="M14.295.131c7.833 0 14.16 6.332 14.16 14.133 0 7.806-6.327 14.142-14.16 14.142-7.812 0-14.16-6.336-14.16-14.142"/>
        <path id="L" d="M15.039.131c7.816 0 14.156 6.332 14.156 14.133 0 7.806-6.34 14.142-14.156 14.142C7.21 28.406.87 22.07.87 14.264"/>
        <path id="N" d="M14.66.131c7.821 0 14.169 6.332 14.169 14.133 0 7.806-6.348 14.142-14.168 14.142C6.828 28.406.5 22.07.5 14.264"/>
        <path id="P" d="M14.291.131c7.82 0 14.16 6.332 14.16 14.133 0 7.806-6.34 14.142-14.16 14.142S.135 22.07.135 14.264"/>
        <path id="R" d="M15.026.131c7.816 0 14.156 6.332 14.156 14.133 0 7.806-6.34 14.142-14.156 14.142C7.194 28.406.854 22.07.854 14.264"/>
        <path id="T" d="M14.657.131c7.82 0 14.16 6.332 14.16 14.133 0 7.806-6.34 14.142-14.16 14.142S.489 22.07.489 14.264"/>
        <path id="V" d="M14.677.422c7.82 0 14.16 6.315 14.16 14.129 0 7.801-6.34 14.12-14.16 14.12C6.85 28.672.51 22.353.51 14.552"/>
        <path id="X" d="M14.308.422c7.824 0 14.16 6.315 14.16 14.129 0 7.801-6.336 14.12-14.16 14.12-7.829 0-14.164-6.319-14.164-14.12"/>
        <path id="Z" d="M15.039.422c7.824 0 14.164 6.315 14.164 14.129 0 7.801-6.34 14.12-14.164 14.12-7.825 0-14.156-6.319-14.156-14.12"/>
        <path id="ab" d="M14.67.422c7.815 0 14.155 6.315 14.155 14.129 0 7.801-6.34 14.12-14.156 14.12-7.812 0-14.164-6.319-14.164-14.12"/>
        <path id="ad" d="M14.295.422c7.833 0 14.16 6.315 14.16 14.129 0 7.801-6.327 14.12-14.16 14.12-7.812 0-14.16-6.319-14.16-14.12"/>
        <path id="af" d="M15.039.422c7.816 0 14.156 6.315 14.156 14.129 0 7.801-6.34 14.12-14.156 14.12C7.21 28.672.87 22.353.87 14.552"/>
        <path id="ah" d="M14.66.422c7.821 0 14.169 6.315 14.169 14.129 0 7.801-6.348 14.12-14.168 14.12C6.828 28.672.5 22.353.5 14.552"/>
        <path id="aj" d="M14.291.422c7.82 0 14.16 6.315 14.16 14.129 0 7.801-6.34 14.12-14.16 14.12S.135 22.353.135 14.552"/>
        <path id="al" d="M15.026.422c7.816 0 14.156 6.315 14.156 14.129 0 7.801-6.34 14.12-14.156 14.12-7.832 0-14.172-6.319-14.172-14.12"/>
        <path id="an" d="M14.874.422C22.69.422 29.03 6.737 29.03 14.55c0 7.801-6.34 14.12-14.156 14.12-7.82 0-14.16-6.319-14.16-14.12"/>
        <path id="ap" d="M14.677.641c7.82 0 14.16 6.324 14.16 14.134 0 7.8-6.34 14.129-14.16 14.129C6.85 28.904.51 22.576.51 14.774"/>
        <path id="ar" d="M14.308.641c7.824 0 14.16 6.324 14.16 14.134 0 7.8-6.336 14.129-14.16 14.129-7.829 0-14.164-6.328-14.164-14.13"/>
        <path id="at" d="M15.039.641c7.824 0 14.164 6.324 14.164 14.134 0 7.8-6.34 14.129-14.164 14.129-7.825 0-14.156-6.328-14.156-14.13"/>
        <path id="av" d="M14.67.641c7.815 0 14.155 6.324 14.155 14.134 0 7.8-6.34 14.129-14.156 14.129-7.812 0-14.164-6.328-14.164-14.13"/>
        <path id="ax" d="M14.295.641c7.833 0 14.16 6.324 14.16 14.134 0 7.8-6.327 14.129-14.16 14.129-7.812 0-14.16-6.328-14.16-14.13"/>
        <path id="az" d="M15.039.641c7.816 0 14.156 6.324 14.156 14.134 0 7.8-6.34 14.129-14.156 14.129C7.21 28.904.87 22.576.87 14.774"/>
        <path id="aB" d="M14.66.641c7.821 0 14.169 6.324 14.169 14.134 0 7.8-6.348 14.129-14.168 14.129C6.828 28.904.5 22.576.5 14.774"/>
        <path id="aD" d="M14.291.641c7.82 0 14.16 6.324 14.16 14.134 0 7.8-6.34 14.129-14.16 14.129S.135 22.576.135 14.774"/>
        <path id="aF" d="M15.026.641c7.816 0 14.156 6.324 14.156 14.134 0 7.8-6.34 14.129-14.156 14.129-7.832 0-14.172-6.328-14.172-14.13"/>
        <path id="aH" d="M14.657.641c7.82 0 14.16 6.324 14.16 14.134 0 7.8-6.34 14.129-14.16 14.129S.489 22.576.489 14.774"/>
        <path id="aJ" d="M16.97.649c9.257 0 16.732 7.486 16.732 16.724 0 9.25-7.475 16.732-16.732 16.732-9.229 0-16.708-7.483-16.708-16.732"/>
        <path id="aL" d="M17.1.649c9.23 0 16.725 7.486 16.725 16.724 0 9.25-7.495 16.732-16.724 16.732-9.237 0-16.732-7.483-16.732-16.732"/>
        <path id="aN" d="M16.97.42c9.257 0 16.732 7.49 16.732 16.74 0 9.233-7.475 16.724-16.732 16.724C7.741 33.884.262 26.393.262 17.16"/>
        <path id="aP" d="M16.835.42c9.228 0 16.732 7.49 16.732 16.74 0 9.233-7.504 16.724-16.732 16.724C7.602 33.884.11 26.393.11 17.16"/>
        <path id="aR" d="M16.97.816c9.257 0 16.732 7.503 16.732 16.74 0 9.238-7.475 16.729-16.732 16.729-9.229 0-16.708-7.491-16.708-16.728"/>
        <path id="aT" d="M17.1.816c9.23 0 16.725 7.503 16.725 16.74 0 9.238-7.495 16.729-16.724 16.729-9.237 0-16.732-7.491-16.732-16.728"/>
        <radialGradient id="aV" cy="44.254%" r="123.301%" fx="50%" fy="44.254%" gradientTransform="matrix(-.3582 .77102 -.4337 -.63681 .871 .339)">
            <stop offset="0%" stop-color="#477899"/>
            <stop offset="100%" stop-color="#030D17"/>
            <stop offset="100%" stop-color="#030D17"/>
        </radialGradient>
    </defs>
    <g fill="none" fill-rule="evenodd">
        <path fill="url(#a)" d="M1241 557h1920v1080H1241z" transform="translate(-1241 -557)"/>
        <g opacity=".05" style="mix-blend-mode:exclusion">
            <path fill="#005977" d="M1413.752 1153L1326 1001.005 1413.752 849h175.496L1677 1001.005 1589.248 1153zM1413.752 834L1326 682l87.752-152h175.496L1677 682l-87.752 152z"/>
            <path fill="#008E9D" d="M1126.748 1309L1039 1157.003 1126.748 1005h175.497L1390 1157.003 1302.245 1309zM1126.748 987L1039 835l87.748-152h175.497L1390 835l-87.755 152z"/>
            <path fill="#00B5B5" d="M836.748 1147L749 995.003 836.748 843h175.498L1100 995.003 1012.246 1147zM836.748 826L749 674l87.748-152h175.498L1100 674l-87.754 152z"/>
            <path fill="#63BFDE" d="M550.75 1309L463 1157.003 550.75 1005h175.496L814 1157.003 726.246 1309zM550.75 987L463 835l87.75-152h175.496L814 835l-87.754 152z"/>
            <path fill="#9DCEDE" d="M271.748 848L184 999.994 271.748 1152h175.5L535 999.994 447.248 848z"/>
            <path fill="#005977" d="M1698.745 685L1611 836.998 1698.745 989h175.504L1962 836.998 1874.248 685zM1698.745 369L1611 520.995 1698.745 673h175.504L1962 520.995 1874.248 369zM1698.745 1004L1611 1156l87.745 152h175.504L1962 1156l-87.752-152z"/>
        </g>
        <g fill="#005977" opacity=".06" style="mix-blend-mode:exclusion">
            <path d="M-11.248 673L-99 521.005-11.248 369h175.496L252 521.005 164.248 673zM-11.248 354L-99 202l87.752-152h175.496L252 202l-87.752 152zM273.745 205L186 356.998 273.745 509h175.503L537 356.998 449.248 205zM273.745-111L186 40.995 273.745 193h175.503L537 40.995 449.248-111zM273.745 524L186 676l87.745 152h175.503L537 676l-87.752-152z"/>
        </g>
        <g stroke="#FFF" opacity=".449" style="mix-blend-mode:overlay">
            <path d="M1597.75 1049L1472 830.5 1597.75 612h251.496L1975 830.5 1849.246 1049zM1597.75 591L1472 372.504 1597.75 154h251.496L1975 372.504 1849.246 591zM1184.745 1274L1059 1055.499 1184.745 837h251.501L1562 1055.499 1436.246 1274zM1184.745 812L1059 593.503 1184.745 375h251.501L1562 593.503 1436.246 812zM766.747 1041L641 822.5 766.747 604h251.497L1144 822.5 1018.244 1041zM766.747 579L641 360.5 766.747 142h251.497L1144 360.5 1018.244 579zM357.32 1273.863l-125.96-218.245 125.96-218.241h251.918l125.96 218.241-125.96 218.245zM357.32 811.66L231.36 593.42 357.32 375.17h251.918l125.96 218.248-125.96 218.241zM2006.596 813.666l-125.954-218.242 125.954-218.244h251.921l125.96 218.244-125.96 218.242zM2006.596 359.503l-125.954-218.25 125.954-218.236h251.921l125.96 218.236-125.96 218.25zM2006.596 1271.858l-125.954-218.245 125.954-218.25h251.921l125.96 218.25-125.96 218.245z"/>
        </g>
        <g stroke="#FFF" opacity=".05" style="mix-blend-mode:overlay">
            <path d="M172.75 569L47 350.5 172.75 132h251.496L550 350.5 424.246 569zM172.75 111L47-107.496 172.75-326h251.496L550-107.496 424.246 111zM-240.255 794L-366 575.499-240.255 357H11.246L137 575.499 11.246 794zM-240.255 332L-366 113.503-240.255-105H11.246L137 113.503 11.246 332zM581.596 333.666L455.642 115.424 581.596-102.82h251.921l125.96 218.244-125.96 218.242zM581.596 791.858L455.642 573.613l125.954-218.25h251.921l125.96 218.25-125.96 218.245z"/>
        </g>
        <g opacity=".068" style="mix-blend-mode:overlay">
            <g transform="translate(568 989.837)">
                <mask id="c" fill="#fff">
                    <use xlink:href="#b"/>
                </mask>
                <path d="M.16 14.35c0 7.814 6.34 14.142 14.16 14.142 7.832 0 14.168-6.328 14.168-14.142C28.488 6.557 22.152.23 14.32.23 6.5.23.16 6.556.16 14.35" mask="url(#c)"/>
            </g>
            <g transform="translate(602.806 989.837)">
                <mask id="e" fill="#fff">
                    <use xlink:href="#d"/>
                </mask>
                <path d="M.903 14.35c0 7.814 6.332 14.142 14.148 14.142 7.82 0 14.16-6.328 14.16-14.142 0-7.793-6.34-14.12-14.16-14.12C7.235.23.903 6.556.903 14.35" mask="url(#e)"/>
            </g>
            <g transform="translate(638.713 989.837)">
                <mask id="g" fill="#fff">
                    <use xlink:href="#f"/>
                </mask>
                <path d="M.521 14.35c0 7.814 6.344 14.142 14.164 14.142 7.82 0 14.156-6.328 14.156-14.142 0-7.793-6.335-14.12-14.156-14.12C6.865.23.521 6.556.521 14.35" mask="url(#g)"/>
            </g>
            <g transform="translate(674.62 989.837)">
                <mask id="i" fill="#fff">
                    <use xlink:href="#h"/>
                </mask>
                <path d="M.156 14.35c0 7.814 6.34 14.142 14.156 14.142 7.824 0 14.164-6.328 14.164-14.142 0-7.793-6.34-14.12-14.164-14.12C6.496.23.156 6.556.156 14.35" mask="url(#i)"/>
            </g>
            <g transform="translate(709.426 989.837)">
                <mask id="k" fill="#fff">
                    <use xlink:href="#j"/>
                </mask>
                <path d="M.887 14.35c0 7.814 6.34 14.15 14.16 14.15s14.16-6.336 14.16-14.15c0-7.793-6.34-14.12-14.16-14.12S.887 6.556.887 14.35" mask="url(#k)"/>
            </g>
            <g transform="translate(745.333 989.837)">
                <mask id="m" fill="#fff">
                    <use xlink:href="#l"/>
                </mask>
                <path d="M.51 14.35c0 7.814 6.339 14.142 14.167 14.142 7.82 0 14.16-6.328 14.16-14.142 0-7.793-6.34-14.12-14.16-14.12C6.85.23.51 6.556.51 14.35" mask="url(#m)"/>
            </g>
            <g transform="translate(781.24 989.837)">
                <mask id="o" fill="#fff">
                    <use xlink:href="#n"/>
                </mask>
                <path d="M.144 14.35c0 7.814 6.335 14.142 14.164 14.142 7.824 0 14.16-6.328 14.16-14.142 0-7.793-6.336-14.12-14.16-14.12C6.479.23.144 6.556.144 14.35" mask="url(#o)"/>
            </g>
            <g transform="translate(816.047 989.837)">
                <mask id="q" fill="#fff">
                    <use xlink:href="#p"/>
                </mask>
                <path d="M.883 14.35c0 7.814 6.331 14.142 14.156 14.142 7.824 0 14.164-6.328 14.164-14.142 0-7.793-6.34-14.12-14.164-14.12C7.214.23.883 6.556.883 14.35" mask="url(#q)"/>
            </g>
            <g transform="translate(851.953 989.837)">
                <mask id="s" fill="#fff">
                    <use xlink:href="#r"/>
                </mask>
                <path d="M.505 14.35c0 7.814 6.352 14.142 14.164 14.142 7.816 0 14.156-6.328 14.156-14.142 0-7.793-6.34-14.12-14.156-14.12C6.857.23.505 6.556.505 14.35" mask="url(#s)"/>
            </g>
            <g transform="translate(568 1026.674)">
                <mask id="u" fill="#fff">
                    <use xlink:href="#t"/>
                </mask>
                <path d="M.16 14.264c0 7.806 6.34 14.142 14.16 14.142 7.832 0 14.168-6.336 14.168-14.142 0-7.8-6.336-14.133-14.168-14.133C6.5.131.16 6.463.16 14.264" mask="url(#u)"/>
            </g>
            <g transform="translate(602.806 1026.674)">
                <mask id="w" fill="#fff">
                    <use xlink:href="#v"/>
                </mask>
                <path d="M.903 14.264c0 7.806 6.332 14.142 14.148 14.142 7.82 0 14.16-6.336 14.16-14.142 0-7.8-6.34-14.133-14.16-14.133C7.235.131.903 6.463.903 14.264" mask="url(#w)"/>
            </g>
            <g transform="translate(638.713 1026.674)">
                <mask id="y" fill="#fff">
                    <use xlink:href="#x"/>
                </mask>
                <path d="M.521 14.264c0 7.806 6.344 14.142 14.164 14.142 7.82 0 14.156-6.336 14.156-14.142 0-7.813-6.335-14.133-14.156-14.133C6.865.131.521 6.451.521 14.264" mask="url(#y)"/>
            </g>
            <g transform="translate(674.62 1026.674)">
                <mask id="A" fill="#fff">
                    <use xlink:href="#z"/>
                </mask>
                <path d="M.156 14.264c0 7.806 6.34 14.142 14.156 14.142 7.824 0 14.164-6.336 14.164-14.142 0-7.8-6.34-14.133-14.164-14.133C6.496.131.156 6.463.156 14.264" mask="url(#A)"/>
            </g>
            <g transform="translate(709.426 1026.674)">
                <mask id="C" fill="#fff">
                    <use xlink:href="#B"/>
                </mask>
                <path d="M.887 14.264c0 7.806 6.34 14.142 14.16 14.142s14.16-6.336 14.16-14.142c0-7.8-6.34-14.133-14.16-14.133S.887 6.463.887 14.264" mask="url(#C)"/>
            </g>
            <g transform="translate(745.333 1026.674)">
                <mask id="E" fill="#fff">
                    <use xlink:href="#D"/>
                </mask>
                <path d="M.51 14.264c0 7.806 6.339 14.142 14.167 14.142 7.82 0 14.16-6.336 14.16-14.142 0-7.8-6.34-14.133-14.16-14.133C6.85.131.51 6.463.51 14.264" mask="url(#E)"/>
            </g>
            <g transform="translate(781.24 1026.674)">
                <mask id="G" fill="#fff">
                    <use xlink:href="#F"/>
                </mask>
                <path d="M.144 14.264c0 7.806 6.335 14.142 14.164 14.142 7.824 0 14.16-6.336 14.16-14.142 0-7.8-6.336-14.133-14.16-14.133C6.479.131.144 6.463.144 14.264" mask="url(#G)"/>
            </g>
            <g transform="translate(851.953 1026.674)">
                <mask id="I" fill="#fff">
                    <use xlink:href="#H"/>
                </mask>
                <path d="M.505 14.264c0 7.806 6.352 14.142 14.164 14.142 7.816 0 14.156-6.336 14.156-14.142 0-7.8-6.34-14.133-14.156-14.133C6.857.131.505 6.463.505 14.264" mask="url(#I)"/>
            </g>
            <g transform="translate(887.86 1026.674)">
                <mask id="K" fill="#fff">
                    <use xlink:href="#J"/>
                </mask>
                <path d="M.135 14.264c0 7.806 6.348 14.142 14.16 14.142 7.833 0 14.16-6.336 14.16-14.142 0-7.8-6.327-14.133-14.16-14.133C6.483.131.135 6.463.135 14.264" mask="url(#K)"/>
            </g>
            <g transform="translate(922.667 1026.674)">
                <mask id="M" fill="#fff">
                    <use xlink:href="#L"/>
                </mask>
                <path d="M.87 14.264c0 7.806 6.34 14.142 14.169 14.142 7.816 0 14.156-6.336 14.156-14.142 0-7.8-6.34-14.133-14.156-14.133C7.21.131.87 6.463.87 14.264" mask="url(#M)"/>
            </g>
            <g transform="translate(958.574 1026.674)">
                <mask id="O" fill="#fff">
                    <use xlink:href="#N"/>
                </mask>
                <path d="M.5 14.264c0 7.806 6.328 14.142 14.16 14.142 7.821 0 14.169-6.336 14.169-14.142 0-7.8-6.348-14.133-14.168-14.133C6.828.131.5 6.463.5 14.264" mask="url(#O)"/>
            </g>
            <g transform="translate(994.48 1026.674)">
                <mask id="Q" fill="#fff">
                    <use xlink:href="#P"/>
                </mask>
                <path d="M.135 14.264c0 7.806 6.336 14.142 14.156 14.142s14.16-6.336 14.16-14.142c0-7.8-6.34-14.133-14.16-14.133S.135 6.463.135 14.264" mask="url(#Q)"/>
            </g>
            <g transform="translate(1029.287 1026.674)">
                <mask id="S" fill="#fff">
                    <use xlink:href="#R"/>
                </mask>
                <path d="M.854 14.264c0 7.806 6.34 14.142 14.172 14.142 7.816 0 14.156-6.336 14.156-14.142 0-7.8-6.34-14.133-14.156-14.133C7.194.131.854 6.463.854 14.264" mask="url(#S)"/>
            </g>
            <g transform="translate(1065.194 1026.674)">
                <mask id="U" fill="#fff">
                    <use xlink:href="#T"/>
                </mask>
                <path d="M.489 14.264c0 7.806 6.348 14.142 14.168 14.142 7.82 0 14.16-6.336 14.16-14.142 0-7.8-6.34-14.133-14.16-14.133S.489 6.463.489 14.264" mask="url(#U)"/>
            </g>
            <g transform="translate(745.333 953)">
                <mask id="W" fill="#fff">
                    <use xlink:href="#V"/>
                </mask>
                <path d="M.51 14.55c0 7.802 6.339 14.122 14.167 14.122 7.82 0 14.16-6.32 14.16-14.121 0-7.814-6.34-14.13-14.16-14.13C6.85.422.51 6.738.51 14.552" mask="url(#W)"/>
            </g>
            <g transform="translate(781.24 953)">
                <mask id="Y" fill="#fff">
                    <use xlink:href="#X"/>
                </mask>
                <path d="M.144 14.55c0 7.802 6.335 14.122 14.164 14.122 7.824 0 14.16-6.32 14.16-14.121 0-7.814-6.336-14.13-14.16-14.13C6.479.422.144 6.738.144 14.552" mask="url(#Y)"/>
            </g>
            <g transform="translate(816.047 953)">
                <mask id="aa" fill="#fff">
                    <use xlink:href="#Z"/>
                </mask>
                <path d="M.883 14.55c0 7.802 6.331 14.122 14.156 14.122 7.824 0 14.164-6.32 14.164-14.121 0-7.814-6.34-14.13-14.164-14.13C7.214.422.883 6.738.883 14.552" mask="url(#aa)"/>
            </g>
            <g transform="translate(851.953 953)">
                <mask id="ac" fill="#fff">
                    <use xlink:href="#ab"/>
                </mask>
                <path d="M.505 14.55c0 7.802 6.352 14.122 14.164 14.122 7.816 0 14.156-6.32 14.156-14.121 0-7.814-6.34-14.13-14.156-14.13C6.857.422.505 6.738.505 14.552" mask="url(#ac)"/>
            </g>
            <g transform="translate(887.86 953)">
                <mask id="ae" fill="#fff">
                    <use xlink:href="#ad"/>
                </mask>
                <path d="M.135 14.55c0 7.802 6.348 14.122 14.16 14.122 7.833 0 14.16-6.32 14.16-14.121 0-7.814-6.327-14.13-14.16-14.13C6.483.422.135 6.738.135 14.552" mask="url(#ae)"/>
            </g>
            <g transform="translate(922.667 953)">
                <mask id="ag" fill="#fff">
                    <use xlink:href="#af"/>
                </mask>
                <path d="M.87 14.55c0 7.802 6.34 14.122 14.169 14.122 7.816 0 14.156-6.32 14.156-14.121 0-7.814-6.34-14.13-14.156-14.13C7.21.422.87 6.738.87 14.552" mask="url(#ag)"/>
            </g>
            <g transform="translate(958.574 953)">
                <mask id="ai" fill="#fff">
                    <use xlink:href="#ah"/>
                </mask>
                <path d="M.5 14.55c0 7.802 6.328 14.122 14.16 14.122 7.821 0 14.169-6.32 14.169-14.121 0-7.814-6.348-14.13-14.168-14.13C6.828.422.5 6.738.5 14.552" mask="url(#ai)"/>
            </g>
            <g transform="translate(994.48 953)">
                <mask id="ak" fill="#fff">
                    <use xlink:href="#aj"/>
                </mask>
                <path d="M.135 14.55c0 7.802 6.336 14.122 14.156 14.122s14.16-6.32 14.16-14.121c0-7.814-6.34-14.13-14.16-14.13S.135 6.738.135 14.552" mask="url(#ak)"/>
            </g>
            <g transform="translate(1029.287 953)">
                <mask id="am" fill="#fff">
                    <use xlink:href="#al"/>
                </mask>
                <path d="M.854 14.55c0 7.802 6.34 14.122 14.172 14.122 7.816 0 14.156-6.32 14.156-14.121 0-7.814-6.34-14.13-14.156-14.13C7.194.422.854 6.738.854 14.552" mask="url(#am)"/>
            </g>
            <g transform="translate(1065.194 953)">
                <mask id="ao" fill="#fff">
                    <use xlink:href="#an"/>
                </mask>
                <path d="M.714 14.55c0 7.802 6.34 14.122 14.16 14.122 7.816 0 14.156-6.32 14.156-14.121C29.03 6.737 22.69.42 14.874.42 7.054.422.714 6.738.714 14.552" mask="url(#ao)"/>
            </g>
            <g transform="translate(745.333 1061.512)">
                <mask id="aq" fill="#fff">
                    <use xlink:href="#ap"/>
                </mask>
                <path d="M.51 14.775c0 7.8 6.339 14.129 14.167 14.129 7.82 0 14.16-6.328 14.16-14.13 0-7.809-6.34-14.133-14.16-14.133C6.85.641.51 6.965.51 14.775" mask="url(#aq)"/>
            </g>
            <g transform="translate(781.24 1061.512)">
                <mask id="as" fill="#fff">
                    <use xlink:href="#ar"/>
                </mask>
                <path d="M.144 14.775c0 7.8 6.335 14.129 14.164 14.129 7.824 0 14.16-6.328 14.16-14.13 0-7.809-6.336-14.133-14.16-14.133C6.479.641.144 6.965.144 14.775" mask="url(#as)"/>
            </g>
            <g transform="translate(816.047 1061.512)">
                <mask id="au" fill="#fff">
                    <use xlink:href="#at"/>
                </mask>
                <path d="M.883 14.775c0 7.8 6.331 14.129 14.156 14.129 7.824 0 14.164-6.328 14.164-14.13 0-7.809-6.34-14.133-14.164-14.133C7.214.641.883 6.965.883 14.775" mask="url(#au)"/>
            </g>
            <g transform="translate(851.953 1061.512)">
                <mask id="aw" fill="#fff">
                    <use xlink:href="#av"/>
                </mask>
                <path d="M.505 14.775c0 7.8 6.352 14.129 14.164 14.129 7.816 0 14.156-6.328 14.156-14.13 0-7.809-6.34-14.133-14.156-14.133C6.857.641.505 6.965.505 14.775" mask="url(#aw)"/>
            </g>
            <g transform="translate(887.86 1061.512)">
                <mask id="ay" fill="#fff">
                    <use xlink:href="#ax"/>
                </mask>
                <path d="M.135 14.775c0 7.8 6.348 14.129 14.16 14.129 7.833 0 14.16-6.328 14.16-14.13 0-7.809-6.327-14.133-14.16-14.133C6.483.641.135 6.965.135 14.775" mask="url(#ay)"/>
            </g>
            <g transform="translate(922.667 1061.512)">
                <mask id="aA" fill="#fff">
                    <use xlink:href="#az"/>
                </mask>
                <path d="M.87 14.775c0 7.8 6.34 14.129 14.169 14.129 7.816 0 14.156-6.328 14.156-14.13 0-7.809-6.34-14.133-14.156-14.133C7.21.641.87 6.965.87 14.775" mask="url(#aA)"/>
            </g>
            <g transform="translate(958.574 1061.512)">
                <mask id="aC" fill="#fff">
                    <use xlink:href="#aB"/>
                </mask>
                <path d="M.5 14.775c0 7.8 6.328 14.129 14.16 14.129 7.821 0 14.169-6.328 14.169-14.13 0-7.809-6.348-14.133-14.168-14.133C6.828.641.5 6.965.5 14.775" mask="url(#aC)"/>
            </g>
            <g transform="translate(994.48 1061.512)">
                <mask id="aE" fill="#fff">
                    <use xlink:href="#aD"/>
                </mask>
                <path d="M.135 14.775c0 7.8 6.336 14.129 14.156 14.129s14.16-6.328 14.16-14.13c0-7.809-6.34-14.133-14.16-14.133S.135 6.965.135 14.775" mask="url(#aE)"/>
            </g>
            <g transform="translate(1029.287 1061.512)">
                <mask id="aG" fill="#fff">
                    <use xlink:href="#aF"/>
                </mask>
                <path d="M.854 14.775c0 7.8 6.34 14.129 14.172 14.129 7.816 0 14.156-6.328 14.156-14.13 0-7.809-6.34-14.133-14.156-14.133C7.194.641.854 6.965.854 14.775" mask="url(#aG)"/>
            </g>
            <g transform="translate(1065.194 1061.512)">
                <mask id="aI" fill="#fff">
                    <use xlink:href="#aH"/>
                </mask>
                <path d="M.489 14.775c0 7.8 6.348 14.129 14.168 14.129 7.82 0 14.16-6.328 14.16-14.13 0-7.809-6.34-14.133-14.16-14.133S.489 6.965.489 14.775" mask="url(#aI)"/>
            </g>
            <g fill="#FFF">
                <path d="M1563.48 1034.911c0 5.072 4.11 9.196 9.166 9.196 5.073 0 9.17-4.124 9.17-9.196 0-5.076-4.097-9.196-9.17-9.196-5.056 0-9.167 4.12-9.167 9.196M1586.485 1034.911c0 5.072 4.106 9.196 9.175 9.196 5.06 0 9.162-4.124 9.162-9.196 0-5.076-4.102-9.196-9.162-9.196-5.069 0-9.175 4.12-9.175 9.196M1609.494 1034.911c0 5.072 4.115 9.196 9.171 9.196 5.073 0 9.175-4.124 9.175-9.196 0-5.076-4.102-9.196-9.175-9.196-5.056 0-9.17 4.12-9.17 9.196M1632.512 1034.911c0 5.072 4.106 9.196 9.166 9.196 5.06 0 9.171-4.124 9.171-9.196 0-5.076-4.11-9.196-9.17-9.196s-9.167 4.12-9.167 9.196M1655.525 1034.911c0 5.072 4.098 9.196 9.162 9.196 5.065 0 9.171-4.124 9.171-9.196 0-5.076-4.106-9.196-9.17-9.196-5.065 0-9.163 4.12-9.163 9.196M1678.526 1034.911c0 5.072 4.107 9.196 9.167 9.196 5.069 0 9.175-4.124 9.175-9.196 0-5.076-4.106-9.196-9.175-9.196-5.06 0-9.167 4.12-9.167 9.196M1701.544 1034.911c0 5.072 4.098 9.196 9.163 9.196 5.064 0 9.17-4.124 9.17-9.196 0-5.076-4.106-9.196-9.17-9.196-5.065 0-9.163 4.12-9.163 9.196M1724.553 1034.911c0 5.072 4.098 9.196 9.167 9.196 5.06 0 9.17-4.124 9.17-9.196 0-5.076-4.11-9.196-9.17-9.196-5.069 0-9.167 4.12-9.167 9.196M1747.558 1034.911c0 5.072 4.107 9.196 9.175 9.196 5.065 0 9.163-4.124 9.163-9.196 0-5.076-4.098-9.196-9.163-9.196-5.068 0-9.175 4.12-9.175 9.196M1770.568 1034.911c0 5.072 4.115 9.196 9.167 9.196 5.077 0 9.17-4.124 9.17-9.196 0-5.076-4.093-9.196-9.17-9.196-5.052 0-9.167 4.12-9.167 9.196M1793.581 1034.911c0 5.072 4.11 9.196 9.171 9.196 5.069 0 9.167-4.124 9.167-9.196 0-5.076-4.098-9.196-9.167-9.196-5.06 0-9.17 4.12-9.17 9.196M1816.587 1034.911c0 5.072 4.106 9.196 9.167 9.196 5.072 0 9.175-4.124 9.175-9.196 0-5.076-4.103-9.196-9.175-9.196-5.06 0-9.167 4.12-9.167 9.196M1839.604 1034.911c0 5.072 4.103 9.196 9.167 9.196 5.065 0 9.167-4.124 9.167-9.196 0-5.076-4.102-9.196-9.167-9.196-5.064 0-9.167 4.12-9.167 9.196M1862.618 1034.911c0 5.072 4.094 9.196 9.163 9.196 5.056 0 9.17-4.124 9.17-9.196 0-5.076-4.114-9.196-9.17-9.196-5.069 0-9.163 4.12-9.163 9.196M1885.627 1034.911c0 5.072 4.098 9.196 9.159 9.196 5.068 0 9.175-4.124 9.175-9.196 0-5.076-4.107-9.196-9.175-9.196-5.06 0-9.159 4.12-9.159 9.196M1563.48 1058.811c0 5.072 4.11 9.184 9.166 9.184 5.073 0 9.17-4.112 9.17-9.184 0-5.08-4.097-9.2-9.17-9.2-5.056 0-9.167 4.12-9.167 9.2M1586.485 1058.811c0 5.072 4.106 9.184 9.175 9.184 5.06 0 9.162-4.112 9.162-9.184 0-5.08-4.102-9.2-9.162-9.2-5.069 0-9.175 4.12-9.175 9.2M1793.581 1011.088c0 5.064 4.11 9.184 9.171 9.184 5.069 0 9.167-4.12 9.167-9.184 0-5.084-4.098-9.195-9.167-9.195-5.06 0-9.17 4.111-9.17 9.195M1816.587 1011.088c0 5.064 4.106 9.184 9.167 9.184 5.072 0 9.175-4.12 9.175-9.184 0-5.084-4.103-9.195-9.175-9.195-5.06 0-9.167 4.111-9.167 9.195M1839.604 1011.088c0 5.064 4.103 9.184 9.167 9.184 5.065 0 9.167-4.12 9.167-9.184 0-5.084-4.102-9.195-9.167-9.195-5.064 0-9.167 4.111-9.167 9.195M1862.618 1011.088c0 5.064 4.094 9.184 9.163 9.184 5.056 0 9.17-4.12 9.17-9.184 0-5.084-4.114-9.195-9.17-9.195-5.069 0-9.163 4.111-9.163 9.195M1885.76 1011.088c0 5.064 4.106 9.184 9.166 9.184 5.077 0 9.17-4.12 9.17-9.184 0-5.084-4.093-9.195-9.17-9.195-5.06 0-9.167 4.111-9.167 9.195M1655.525 1081.789c0 5.06 4.098 9.196 9.162 9.196 5.065 0 9.171-4.137 9.171-9.196 0-5.089-4.106-9.192-9.17-9.192-5.065 0-9.163 4.103-9.163 9.192M1678.526 1081.789c0 5.06 4.107 9.18 9.167 9.18 5.069 0 9.175-4.12 9.175-9.18 0-5.089-4.106-9.192-9.175-9.192-5.06 0-9.167 4.103-9.167 9.192M1701.544 1081.789c0 5.06 4.098 9.18 9.163 9.18 5.064 0 9.17-4.12 9.17-9.18 0-5.089-4.106-9.192-9.17-9.192-5.065 0-9.163 4.103-9.163 9.192M1724.553 1081.789c0 5.06 4.098 9.18 9.167 9.18 5.06 0 9.17-4.12 9.17-9.18 0-5.089-4.11-9.192-9.17-9.192-5.069 0-9.167 4.103-9.167 9.192M1747.558 1081.789c0 5.06 4.107 9.18 9.175 9.18 5.065 0 9.163-4.12 9.163-9.18 0-5.089-4.098-9.192-9.163-9.192-5.068 0-9.175 4.103-9.175 9.192M1770.568 1081.789c0 5.06 4.115 9.18 9.167 9.18 5.077 0 9.17-4.12 9.17-9.18 0-5.089-4.093-9.192-9.17-9.192-5.052 0-9.167 4.103-9.167 9.192"/>
            </g>
            <g fill="#FFF">
                <path d="M158 1034.911c0 5.072 4.104 9.196 9.178 9.196 5.07 0 9.165-4.124 9.165-9.196 0-5.076-4.095-9.196-9.165-9.196-5.074 0-9.177 4.12-9.177 9.196M181.019 1034.911c0 5.072 4.107 9.196 9.177 9.196 5.062 0 9.165-4.124 9.165-9.196 0-5.076-4.103-9.196-9.165-9.196-5.07 0-9.177 4.12-9.177 9.196M204.038 1034.911c0 5.072 4.108 9.196 9.17 9.196 5.073 0 9.173-4.124 9.173-9.196 0-5.076-4.1-9.196-9.174-9.196-5.061 0-9.169 4.12-9.169 9.196M227.058 1034.911c0 5.072 4.108 9.196 9.17 9.196 5.061 0 9.173-4.124 9.173-9.196 0-5.076-4.112-9.196-9.174-9.196-5.061 0-9.169 4.12-9.169 9.196M250.076 1034.911c0 5.072 4.099 9.196 9.169 9.196 5.062 0 9.173-4.124 9.173-9.196 0-5.076-4.111-9.196-9.173-9.196-5.07 0-9.17 4.12-9.17 9.196M273.088 1034.911c0 5.072 4.107 9.196 9.169 9.196 5.07 0 9.177-4.124 9.177-9.196 0-5.076-4.107-9.196-9.177-9.196-5.062 0-9.17 4.12-9.17 9.196M296.105 1034.911c0 5.072 4.104 9.196 9.17 9.196 5.061 0 9.173-4.124 9.173-9.196 0-5.076-4.112-9.196-9.173-9.196-5.066 0-9.17 4.12-9.17 9.196M319.123 1034.911c0 5.072 4.103 9.196 9.173 9.196 5.058 0 9.17-4.124 9.17-9.196 0-5.076-4.112-9.196-9.17-9.196-5.07 0-9.173 4.12-9.173 9.196M342.137 1034.911c0 5.072 4.107 9.196 9.165 9.196 5.074 0 9.177-4.124 9.177-9.196 0-5.076-4.103-9.196-9.177-9.196-5.058 0-9.165 4.12-9.165 9.196M365.154 1034.911c0 5.072 4.108 9.196 9.17 9.196 5.074 0 9.173-4.124 9.173-9.196 0-5.076-4.1-9.196-9.173-9.196-5.062 0-9.17 4.12-9.17 9.196M388.168 1034.911c0 5.072 4.116 9.196 9.177 9.196 5.062 0 9.17-4.124 9.17-9.196 0-5.076-4.108-9.196-9.17-9.196-5.061 0-9.177 4.12-9.177 9.196M411.186 1034.911c0 5.072 4.099 9.196 9.165 9.196 5.074 0 9.181-4.124 9.181-9.196 0-5.076-4.107-9.196-9.181-9.196-5.066 0-9.165 4.12-9.165 9.196M434.205 1034.911c0 5.072 4.108 9.196 9.17 9.196 5.07 0 9.169-4.124 9.169-9.196 0-5.076-4.1-9.196-9.17-9.196-5.061 0-9.169 4.12-9.169 9.196M457.225 1034.911c0 5.072 4.095 9.196 9.161 9.196 5.07 0 9.182-4.124 9.182-9.196 0-5.076-4.112-9.196-9.182-9.196-5.066 0-9.16 4.12-9.16 9.196M480.233 1034.911c0 5.072 4.108 9.196 9.173 9.196 5.07 0 9.174-4.124 9.174-9.196 0-5.076-4.104-9.196-9.174-9.196-5.065 0-9.173 4.12-9.173 9.196M158 1058.811c0 5.072 4.104 9.184 9.178 9.184 5.07 0 9.165-4.112 9.165-9.184 0-5.08-4.095-9.2-9.165-9.2-5.074 0-9.177 4.12-9.177 9.2M181.019 1058.811c0 5.072 4.107 9.184 9.177 9.184 5.062 0 9.165-4.112 9.165-9.184 0-5.08-4.103-9.2-9.165-9.2-5.07 0-9.177 4.12-9.177 9.2M388.168 1011.088c0 5.064 4.116 9.184 9.177 9.184 5.062 0 9.17-4.12 9.17-9.184 0-5.084-4.108-9.195-9.17-9.195-5.061 0-9.177 4.111-9.177 9.195M411.186 1011.088c0 5.064 4.099 9.184 9.165 9.184 5.074 0 9.181-4.12 9.181-9.184 0-5.084-4.107-9.195-9.181-9.195-5.066 0-9.165 4.111-9.165 9.195M434.205 1011.088c0 5.064 4.108 9.184 9.17 9.184 5.07 0 9.169-4.12 9.169-9.184 0-5.084-4.1-9.195-9.17-9.195-5.061 0-9.169 4.111-9.169 9.195M457.225 1011.088c0 5.064 4.095 9.184 9.161 9.184 5.07 0 9.182-4.12 9.182-9.184 0-5.084-4.112-9.195-9.182-9.195-5.066 0-9.16 4.111-9.16 9.195M480.38 1011.088c0 5.064 4.1 9.184 9.166 9.184 5.066 0 9.177-4.12 9.177-9.184 0-5.084-4.111-9.195-9.177-9.195s-9.165 4.111-9.165 9.195M250.076 1081.789c0 5.06 4.099 9.196 9.169 9.196 5.062 0 9.173-4.137 9.173-9.196 0-5.089-4.111-9.192-9.173-9.192-5.07 0-9.17 4.103-9.17 9.192M273.088 1081.789c0 5.06 4.107 9.18 9.169 9.18 5.07 0 9.177-4.12 9.177-9.18 0-5.089-4.107-9.192-9.177-9.192-5.062 0-9.17 4.103-9.17 9.192M296.105 1081.789c0 5.06 4.104 9.18 9.17 9.18 5.061 0 9.173-4.12 9.173-9.18 0-5.089-4.112-9.192-9.173-9.192-5.066 0-9.17 4.103-9.17 9.192M319.123 1081.789c0 5.06 4.103 9.18 9.173 9.18 5.058 0 9.17-4.12 9.17-9.18 0-5.089-4.112-9.192-9.17-9.192-5.07 0-9.173 4.103-9.173 9.192M342.137 1081.789c0 5.06 4.107 9.18 9.165 9.18 5.074 0 9.177-4.12 9.177-9.18 0-5.089-4.103-9.192-9.177-9.192-5.058 0-9.165 4.103-9.165 9.192M365.154 1081.789c0 5.06 4.108 9.18 9.17 9.18 5.074 0 9.173-4.12 9.173-9.18 0-5.089-4.1-9.192-9.173-9.192-5.062 0-9.17 4.103-9.17 9.192"/>
            </g>
            <g fill="#FFF">
                <path d="M1517.181 1081.087c0-5.076-4.115-9.179-9.181-9.179-5.066 0-9.165 4.103-9.165 9.18 0 5.075 4.099 9.195 9.165 9.195 5.066 0 9.181-4.12 9.181-9.196M1494.157 1081.087c0-5.076-4.111-9.179-9.169-9.179a9.164 9.164 0 0 0-9.169 9.18c0 5.075 4.095 9.195 9.17 9.195 5.057 0 9.168-4.12 9.168-9.196M1471.138 1081.087c0-5.076-4.108-9.179-9.157-9.179a9.17 9.17 0 0 0-9.182 9.18c0 5.075 4.1 9.195 9.182 9.195 5.05 0 9.157-4.12 9.157-9.196M1448.13 1081.087c0-5.076-4.12-9.179-9.178-9.179a9.173 9.173 0 0 0-9.173 9.18c0 5.075 4.108 9.195 9.173 9.195 5.058 0 9.178-4.12 9.178-9.196M1425.102 1081.087c0-5.076-4.09-9.187-9.169-9.187-5.066 0-9.173 4.111-9.173 9.187s4.107 9.196 9.173 9.196c5.078 0 9.17-4.12 9.17-9.196M1402.09 1081.087c0-5.076-4.11-9.179-9.168-9.179a9.17 9.17 0 0 0-9.178 9.18c0 5.075 4.104 9.195 9.178 9.195 5.057 0 9.169-4.12 9.169-9.196M1379.079 1081.087c0-5.076-4.108-9.179-9.165-9.179a9.174 9.174 0 0 0-9.182 9.18c0 5.075 4.108 9.195 9.182 9.195 5.057 0 9.165-4.12 9.165-9.196M1356.06 1081.087c0-5.076-4.108-9.179-9.166-9.179a9.174 9.174 0 0 0-9.182 9.18c0 5.075 4.108 9.195 9.182 9.195 5.058 0 9.165-4.12 9.165-9.196M1333.04 1081.087c0-5.076-4.104-9.179-9.17-9.179a9.167 9.167 0 0 0-9.173 9.18c0 5.075 4.1 9.195 9.173 9.195 5.066 0 9.17-4.12 9.17-9.196M1310.02 1081.087c0-5.076-4.104-9.179-9.17-9.179-5.07 0-9.169 4.103-9.169 9.18 0 5.075 4.1 9.195 9.17 9.195 5.065 0 9.169-4.12 9.169-9.196M1287.012 1081.087a9.176 9.176 0 0 0-9.177-9.179c-5.066 0-9.17 4.103-9.17 9.18 0 5.075 4.104 9.195 9.17 9.195s9.177-4.12 9.177-9.196M1263.992 1081.087c0-5.076-4.099-9.179-9.173-9.179-5.07 0-9.165 4.103-9.165 9.18 0 5.075 4.095 9.195 9.165 9.195 5.074 0 9.173-4.12 9.173-9.196M1240.98 1081.087a9.174 9.174 0 0 0-9.177-9.179c-5.07 0-9.165 4.103-9.165 9.18 0 5.075 4.095 9.195 9.165 9.195 5.07 0 9.177-4.12 9.177-9.196M1217.953 1081.087c0-5.076-4.1-9.179-9.161-9.179a9.177 9.177 0 0 0-9.182 9.18c0 5.075 4.112 9.195 9.182 9.195 5.062 0 9.16-4.12 9.16-9.196M1194.941 1081.087c0-5.076-4.107-9.179-9.169-9.179-5.07 0-9.17 4.103-9.17 9.18 0 5.075 4.1 9.195 9.17 9.195 5.062 0 9.17-4.12 9.17-9.196M1517.181 1057.188c0-5.064-4.115-9.183-9.181-9.183-5.066 0-9.165 4.12-9.165 9.183 0 5.088 4.099 9.196 9.165 9.196 5.066 0 9.181-4.108 9.181-9.196M1494.157 1057.188c0-5.064-4.111-9.183-9.169-9.183-5.074 0-9.169 4.12-9.169 9.183 0 5.088 4.095 9.196 9.17 9.196 5.057 0 9.168-4.108 9.168-9.196M1448.13 1011.088c0-5.084-4.12-9.195-9.178-9.195-5.065 0-9.173 4.111-9.173 9.195 0 5.076 4.108 9.184 9.173 9.184 5.058 0 9.178-4.108 9.178-9.184M1425.102 1011.088c0-5.084-4.09-9.195-9.169-9.195-5.066 0-9.173 4.111-9.173 9.195 0 5.076 4.107 9.184 9.173 9.184 5.078 0 9.17-4.108 9.17-9.184M1402.09 1011.088c0-5.084-4.11-9.195-9.168-9.195-5.074 0-9.178 4.111-9.178 9.195a9.174 9.174 0 0 0 9.178 9.184c5.057 0 9.169-4.108 9.169-9.184M1379.079 1011.088c0-5.084-4.108-9.195-9.165-9.195-5.074 0-9.182 4.111-9.182 9.195a9.178 9.178 0 0 0 9.182 9.184c5.057 0 9.165-4.108 9.165-9.184M1356.06 1011.088c0-5.084-4.108-9.195-9.166-9.195-5.074 0-9.182 4.111-9.182 9.195a9.178 9.178 0 0 0 9.182 9.184c5.058 0 9.165-4.108 9.165-9.184M1333.04 1011.088c0-5.084-4.104-9.195-9.17-9.195-5.074 0-9.173 4.111-9.173 9.195 0 5.076 4.1 9.184 9.173 9.184 5.066 0 9.17-4.108 9.17-9.184M1310.02 1011.088c0-5.084-4.104-9.195-9.17-9.195-5.07 0-9.169 4.111-9.169 9.195 0 5.076 4.1 9.184 9.17 9.184 5.065 0 9.169-4.108 9.169-9.184M1287.012 1011.088c0-5.084-4.111-9.195-9.177-9.195s-9.17 4.111-9.17 9.195c0 5.076 4.104 9.184 9.17 9.184s9.177-4.108 9.177-9.184M1425.102 1034.222c0-5.072-4.09-9.195-9.169-9.195-5.066 0-9.173 4.123-9.173 9.195 0 5.076 4.107 9.188 9.173 9.188 5.078 0 9.17-4.112 9.17-9.188M1402.09 1034.222c0-5.072-4.11-9.195-9.168-9.195-5.074 0-9.178 4.123-9.178 9.195 0 5.076 4.104 9.188 9.178 9.188 5.057 0 9.169-4.112 9.169-9.188M1379.079 1034.222c0-5.072-4.108-9.195-9.165-9.195-5.074 0-9.182 4.123-9.182 9.195 0 5.076 4.108 9.188 9.182 9.188 5.057 0 9.165-4.112 9.165-9.188M1356.06 1034.222c0-5.072-4.108-9.195-9.166-9.195-5.074 0-9.182 4.123-9.182 9.195 0 5.076 4.108 9.188 9.182 9.188 5.058 0 9.165-4.112 9.165-9.188M1333.04 1034.222c0-5.072-4.104-9.195-9.17-9.195-5.074 0-9.173 4.123-9.173 9.195 0 5.076 4.1 9.188 9.173 9.188 5.066 0 9.17-4.112 9.17-9.188M1310.02 1034.222c0-5.072-4.104-9.195-9.17-9.195-5.07 0-9.169 4.123-9.169 9.195 0 5.076 4.1 9.188 9.17 9.188 5.065 0 9.169-4.112 9.169-9.188"/>
            </g>
            <g>
                <g transform="translate(1917.078 558)">
                    <mask id="aK" fill="#fff">
                        <use xlink:href="#aJ"/>
                    </mask>
                    <path d="M33.702 17.372C33.702 8.135 26.227.65 16.97.65 7.741.649.262 8.135.262 17.372c0 9.25 7.48 16.733 16.708 16.733 9.257 0 16.732-7.483 16.732-16.732" mask="url(#aK)"/>
                </g>
                <g transform="translate(1875 558)">
                    <mask id="aM" fill="#fff">
                        <use xlink:href="#aL"/>
                    </mask>
                    <path d="M33.825 17.372C33.825 8.135 26.33.65 17.101.65 7.864.649.369 8.135.369 17.372c0 9.25 7.495 16.733 16.732 16.733 9.229 0 16.724-7.483 16.724-16.732" mask="url(#aM)"/>
                </g>
                <g transform="translate(1917.078 645.1)">
                    <mask id="aO" fill="#fff">
                        <use xlink:href="#aN"/>
                    </mask>
                    <path d="M33.702 17.16C33.702 7.91 26.227.42 16.97.42 7.741.42.262 7.91.262 17.16c0 9.233 7.48 16.724 16.708 16.724 9.257 0 16.732-7.491 16.732-16.724" mask="url(#aO)"/>
                </g>
                <g transform="translate(1875 645.1)">
                    <mask id="aQ" fill="#fff">
                        <use xlink:href="#aP"/>
                    </mask>
                    <path d="M33.567 17.16c0-9.25-7.504-16.74-16.732-16.74C7.602.42.11 7.91.11 17.16c0 9.233 7.492 16.724 16.725 16.724 9.228 0 16.732-7.491 16.732-16.724" mask="url(#aQ)"/>
                </g>
                <g transform="translate(1917.078 516)">
                    <mask id="aS" fill="#fff">
                        <use xlink:href="#aR"/>
                    </mask>
                    <path d="M33.702 17.557c0-9.238-7.475-16.74-16.732-16.74C7.741.816.262 8.318.262 17.556c0 9.237 7.48 16.728 16.708 16.728 9.257 0 16.732-7.491 16.732-16.728" mask="url(#aS)"/>
                </g>
                <g transform="translate(1875 516)">
                    <mask id="aU" fill="#fff">
                        <use xlink:href="#aT"/>
                    </mask>
                    <path d="M33.825 17.557c0-9.238-7.495-16.74-16.724-16.74C7.864.816.369 8.318.369 17.556c0 9.237 7.495 16.728 16.732 16.728 9.229 0 16.724-7.491 16.724-16.728" mask="url(#aU)"/>
                </g>
            </g>
            <g fill="#FFF">
                <path d="M1404.025 571.709c0 5.977 4.858 10.833 10.844 10.833 6.003 0 10.85-4.856 10.85-10.833s-4.847-10.829-10.85-10.829c-5.986 0-10.844 4.852-10.844 10.829M1431.247 571.709c0 5.977 4.859 10.833 10.849 10.833 5.994 0 10.84-4.856 10.84-10.833s-4.846-10.829-10.84-10.829c-5.99 0-10.849 4.852-10.849 10.829M1458.47 571.709c0 5.977 4.867 10.833 10.853 10.833 6.002 0 10.852-4.856 10.852-10.833s-4.85-10.829-10.852-10.829c-5.986 0-10.853 4.852-10.853 10.829M1485.704 571.709c0 5.977 4.863 10.833 10.853 10.833 5.982 0 10.845-4.856 10.845-10.833s-4.863-10.829-10.845-10.829c-5.99 0-10.853 4.852-10.853 10.829M1512.935 571.709c0 5.977 4.85 10.833 10.853 10.833 5.982 0 10.844-4.856 10.844-10.833s-4.862-10.829-10.844-10.829c-6.003 0-10.853 4.852-10.853 10.829M1540.154 571.709c0 5.977 4.858 10.833 10.848 10.833 5.994 0 10.853-4.856 10.853-10.833s-4.859-10.829-10.853-10.829c-5.99 0-10.848 4.852-10.848 10.829M1567.38 571.709c0 5.977 4.863 10.833 10.853 10.833 5.982 0 10.844-4.856 10.844-10.833s-4.862-10.829-10.844-10.829c-5.99 0-10.853 4.852-10.853 10.829M1594.615 571.709c0 5.977 4.858 10.833 10.852 10.833 5.978 0 10.845-4.856 10.845-10.833s-4.867-10.829-10.845-10.829c-5.994 0-10.852 4.852-10.852 10.829M1621.833 571.709c0 5.977 4.867 10.833 10.861 10.833 5.982 0 10.845-4.856 10.845-10.833s-4.863-10.829-10.845-10.829c-5.994 0-10.86 4.852-10.86 10.829M1649.064 571.709c0 5.977 4.867 10.833 10.853 10.833 5.99 0 10.848-4.856 10.848-10.833s-4.858-10.829-10.848-10.829c-5.986 0-10.853 4.852-10.853 10.829M1676.29 571.709c0 5.977 4.867 10.833 10.849 10.833 6.002 0 10.857-4.856 10.857-10.833s-4.855-10.829-10.857-10.829c-5.982 0-10.849 4.852-10.849 10.829M1703.525 571.709c0 5.977 4.859 10.833 10.84 10.833 5.99 0 10.865-4.856 10.865-10.833s-4.874-10.829-10.865-10.829c-5.981 0-10.84 4.852-10.84 10.829M1730.752 571.709c0 5.977 4.862 10.833 10.848 10.833 5.986 0 10.849-4.856 10.849-10.833s-4.863-10.829-10.849-10.829-10.848 4.852-10.848 10.829M1757.982 571.709c0 5.977 4.85 10.833 10.84 10.833 5.986 0 10.853-4.856 10.853-10.833s-4.867-10.829-10.853-10.829c-5.99 0-10.84 4.852-10.84 10.829M1785.213 571.709c0 5.977 4.85 10.833 10.832 10.833 5.998 0 10.86-4.856 10.86-10.833s-4.862-10.829-10.86-10.829c-5.982 0-10.832 4.852-10.832 10.829M1404.025 599.866c0 5.977 4.858 10.824 10.844 10.824 6.003 0 10.85-4.847 10.85-10.824 0-5.993-4.847-10.829-10.85-10.829-5.986 0-10.844 4.836-10.844 10.829M1431.247 599.866c0 5.977 4.859 10.824 10.849 10.824 5.994 0 10.84-4.847 10.84-10.824 0-5.993-4.846-10.829-10.84-10.829-5.99 0-10.849 4.836-10.849 10.829M1485.704 654.174c0 5.965 4.863 10.833 10.853 10.833 5.982 0 10.845-4.868 10.845-10.833 0-5.993-4.863-10.833-10.845-10.833-5.99 0-10.853 4.84-10.853 10.833M1512.935 654.174c0 5.965 4.85 10.833 10.853 10.833 5.982 0 10.844-4.868 10.844-10.833 0-5.993-4.862-10.833-10.844-10.833-6.003 0-10.853 4.84-10.853 10.833M1540.154 654.174c0 5.965 4.858 10.833 10.848 10.833 5.994 0 10.853-4.868 10.853-10.833 0-5.993-4.859-10.833-10.853-10.833-5.99 0-10.848 4.84-10.848 10.833M1567.38 654.174c0 5.965 4.863 10.833 10.853 10.833 5.982 0 10.844-4.868 10.844-10.833 0-5.993-4.862-10.833-10.844-10.833-5.99 0-10.853 4.84-10.853 10.833M1594.615 654.174c0 5.965 4.858 10.833 10.852 10.833 5.978 0 10.845-4.868 10.845-10.833 0-5.993-4.867-10.833-10.845-10.833-5.994 0-10.852 4.84-10.852 10.833M1621.833 654.174c0 5.965 4.867 10.833 10.861 10.833 5.982 0 10.845-4.868 10.845-10.833 0-5.993-4.863-10.833-10.845-10.833-5.994 0-10.86 4.84-10.86 10.833M1649.064 654.174c0 5.965 4.867 10.833 10.853 10.833 5.99 0 10.848-4.868 10.848-10.833 0-5.993-4.858-10.833-10.848-10.833-5.986 0-10.853 4.84-10.853 10.833M1676.29 654.174c0 5.965 4.867 10.833 10.849 10.833 6.002 0 10.857-4.868 10.857-10.833 0-5.993-4.855-10.833-10.857-10.833-5.982 0-10.849 4.84-10.849 10.833M1676.29 543.644c0 5.98 4.867 10.824 10.849 10.824 6.002 0 10.857-4.843 10.857-10.824 0-5.985-4.855-10.833-10.857-10.833-5.982 0-10.849 4.848-10.849 10.833M1703.525 543.644c0 5.98 4.859 10.824 10.84 10.824 5.99 0 10.865-4.843 10.865-10.824 0-5.985-4.874-10.833-10.865-10.833-5.981 0-10.84 4.848-10.84 10.833M1730.752 543.644c0 5.98 4.862 10.824 10.848 10.824 5.986 0 10.849-4.843 10.849-10.824 0-5.985-4.863-10.833-10.849-10.833s-10.848 4.848-10.848 10.833M1757.982 543.644c0 5.98 4.85 10.824 10.84 10.824 5.986 0 10.853-4.843 10.853-10.824 0-5.985-4.867-10.833-10.853-10.833-5.99 0-10.84 4.848-10.84 10.833M1785.365 543.644c0 5.98 4.858 10.824 10.852 10.824 5.995 0 10.849-4.843 10.849-10.824 0-5.985-4.854-10.833-10.849-10.833-5.994 0-10.852 4.848-10.852 10.833M1512.935 626.924c0 5.973 4.85 10.833 10.853 10.833 5.982 0 10.844-4.86 10.844-10.833 0-5.98-4.862-10.824-10.844-10.824-6.003 0-10.853 4.843-10.853 10.824M1540.154 626.924c0 5.973 4.858 10.825 10.848 10.825 5.994 0 10.853-4.852 10.853-10.825 0-5.98-4.859-10.824-10.853-10.824-5.99 0-10.848 4.843-10.848 10.824M1567.38 626.924c0 5.973 4.863 10.825 10.853 10.825 5.982 0 10.844-4.852 10.844-10.825 0-5.98-4.862-10.824-10.844-10.824-5.99 0-10.853 4.843-10.853 10.824M1594.615 626.924c0 5.973 4.858 10.825 10.852 10.825 5.978 0 10.845-4.852 10.845-10.825 0-5.98-4.867-10.824-10.845-10.824-5.994 0-10.852 4.843-10.852 10.824M1621.833 626.924c0 5.973 4.867 10.825 10.861 10.825 5.982 0 10.845-4.852 10.845-10.825 0-5.98-4.863-10.824-10.845-10.824-5.994 0-10.86 4.843-10.86 10.824M1649.064 626.924c0 5.973 4.867 10.825 10.853 10.825 5.99 0 10.848-4.852 10.848-10.825 0-5.98-4.858-10.824-10.848-10.824-5.986 0-10.853 4.843-10.853 10.824"/>
            </g>
        </g>
        <path fill="url(#aV)" fill-opacity=".8" d="M1241 557h1920v1080H1241z" opacity=".265" style="mix-blend-mode:overlay" transform="translate(-1241 -557)"/>
    </g>
</svg>
