<svg xmlns="http://www.w3.org/2000/svg" width="285" height="214" viewBox="0 0 285 214">
    <path fill="#FFF" fill-rule="nonzero" d="M228.578 0H7.422C-10.54-.174-25.85 12.948-28.364 30.675L-49 176.669v1.665C-49 198.032-32.978 214-13.214 214h37.813a35.846 35.846 0 0 0 25.289-10.462l9.9-9.868a11.95 11.95 0 0 1 8.47-3.448h99.484a11.95 11.95 0 0 1 8.47 3.448l9.9 9.868A35.846 35.846 0 0 0 211.401 214h37.813C268.978 214 285 198.032 285 178.334l-21.114-147.66C261.397 13.129 246.36.065 228.578 0zM190 60c6.627 0 12 5.373 12 12s-5.373 12-12 12-12-5.373-12-12 5.373-12 12-12zM82 101.417a5.917 5.917 0 0 1-5.917 5.916h-17.75v17.75A5.917 5.917 0 0 1 52.417 131H40.583a5.917 5.917 0 0 1-5.916-5.917v-17.75h-17.75A5.917 5.917 0 0 1 11 101.417V89.583a5.917 5.917 0 0 1 5.917-5.916h17.75v-17.75A5.917 5.917 0 0 1 40.583 60h11.834a5.917 5.917 0 0 1 5.916 5.917v17.75h17.75A5.917 5.917 0 0 1 82 89.583v11.834zM166 107c-6.627 0-12-5.373-12-12s5.373-12 12-12 12 5.373 12 12-5.373 12-12 12zm24 24c-6.627 0-12-5.373-12-12s5.373-12 12-12 12 5.373 12 12-5.373 12-12 12zm23-24c-6.627 0-12-5.373-12-12s5.373-12 12-12 12 5.373 12 12-5.373 12-12 12z"/>
</svg>
