<svg xmlns="http://www.w3.org/2000/svg" width="146" height="146" viewBox="0 0 146 146">
    <path fill="#FFF" fill-rule="evenodd" d="M73 0c40.317 0 73 32.683 73 73s-32.683 73-73 73S0 113.317 0 73 32.683 0 73 0zm-.3 40.35H49.85V112H75.2c6 0 6 0 10.675-1.475 4.675-1.475 4.675-1.475 7.9-4.175 3.225-2.7 3.225-2.7 4.9-6.45 1.675-3.75 1.675-3.75 1.675-8.3 0-6.7 0-6.7-4-10.8-4-4.1-4-4.1-11.85-5.65 3.4-1.05 3.4-1.05 5.925-2.7 2.525-1.65 2.525-1.65 4.2-3.75 1.675-2.1 1.675-2.1 2.5-4.55.825-2.45.825-2.45.825-5.1 0-4.35 0-4.35-1.475-7.825C95 47.75 95 47.75 91.925 45.35c-3.075-2.4-3.075-2.4-7.85-3.7-4.51-1.228-4.51-1.228-10.647-1.296l-.728-.004zm2.3 39c7.95 0 7.95 0 11.875 3.225S90.8 85.8 90.8 91.35c0 2.85 0 2.85-.9 5.225-.9 2.375-.9 2.375-2.825 4.1-1.925 1.725-1.925 1.725-4.9 2.675-2.975.95-2.975.95-7.125.95h-15.5V79.35H75zM72.7 48c8 0 8 0 11.8 2.95 3.8 2.95 3.8 2.95 3.8 9.25 0 2.7 0 2.7-.95 4.975-.95 2.275-.95 2.275-2.925 3.875-1.975 1.6-1.975 1.6-4.975 2.5-3 .9-3 .9-7.1.9h-12.8V48H72.7z"/>
</svg>
