<svg xmlns="http://www.w3.org/2000/svg" width="150" height="116" viewBox="0 0 150 116">
    <path fill="#FFF" fill-rule="nonzero" d="M131.08 44H56.92a12.001 12.001 0 0 0-12 10.321L38 103.441v.56c0 6.627 5.373 12 12 12h12.68a12 12 0 0 0 8.48-3.52l3.32-3.32a4 4 0 0 1 2.84-1.16h33.36a4 4 0 0 1 2.84 1.16l3.32 3.32a12 12 0 0 0 8.48 3.52H138c6.627 0 12-5.373 12-12l-7.08-49.68a12.001 12.001 0 0 0-11.84-10.32zM118 64a4 4 0 1 1 0 8 4 4 0 0 1 0-8zM82 78a2 2 0 0 1-2 2h-6v6a2 2 0 0 1-2 2h-4a2 2 0 0 1-2-2v-6h-6a2 2 0 0 1-2-2v-4a2 2 0 0 1 2-2h6v-6a2 2 0 0 1 2-2h4a2 2 0 0 1 2 2v6h6a2 2 0 0 1 2 2v4zm28 2a4 4 0 1 1 0-8 4 4 0 0 1 0 8zm8 8a4 4 0 1 1 0-8 4 4 0 0 1 0 8zm8-16a4 4 0 1 1 0 8 4 4 0 0 1 0-8zM36.242 0a3.882 3.882 0 0 1 3.816 3.167l.71 3.783a27.02 27.02 0 0 1 5.158 2.139l3.179-2.175a3.882 3.882 0 0 1 4.937.46l4.585 4.584a3.882 3.882 0 0 1 .459 4.937l-2.175 3.179a27.02 27.02 0 0 1 2.139 5.159l3.783.71A3.882 3.882 0 0 1 66 29.757v6.484a3.882 3.882 0 0 1-3.167 3.816l-3.783.71-.795.023h-4.786c-4.525 0-10.078 4.657-11.565 9.34l-1.137 8.919-.71 3.783A3.882 3.882 0 0 1 36.243 66h-6.484a3.882 3.882 0 0 1-3.816-3.167l-.71-3.783a27.02 27.02 0 0 1-5.158-2.139l-3.179 2.175a3.882 3.882 0 0 1-4.937-.46l-4.585-4.584a3.882 3.882 0 0 1-.459-4.937l2.175-3.179a27.02 27.02 0 0 1-2.139-5.159l-3.783-.71A3.882 3.882 0 0 1 0 36.243v-6.484a3.882 3.882 0 0 1 3.167-3.816l3.783-.71a27.02 27.02 0 0 1 2.139-5.158l-2.175-3.179a3.882 3.882 0 0 1 .46-4.937l4.584-4.585a3.882 3.882 0 0 1 4.937-.459l3.179 2.175a27.02 27.02 0 0 1 5.159-2.139l.71-3.783A3.882 3.882 0 0 1 29.757 0h6.484zM33 19.412c-7.505 0-13.588 6.083-13.588 13.588 0 7.505 6.083 13.588 13.588 13.588 7.505 0 13.588-6.083 13.588-13.588 0-7.505-6.083-13.588-13.588-13.588zm0 3.882c5.36 0 9.706 4.346 9.706 9.706 0 5.36-4.346 9.706-9.706 9.706-5.36 0-9.706-4.346-9.706-9.706 0-5.36 4.346-9.706 9.706-9.706z"/>
</svg>
