<svg xmlns="http://www.w3.org/2000/svg" width="146" height="146" viewBox="0 0 146 146">
    <path fill="#FFF" fill-rule="evenodd" d="M73 0c40.317 0 73 32.683 73 73s-32.683 73-73 73S0 113.317 0 73 32.683 0 73 0zm4.84 38h-9.68L40 108h7.372c.819 0 1.507-.228 2.064-.684.487-.399.849-.848 1.085-1.346l.094-.217L57.2 88.851h31.6l6.585 16.902a3.907 3.907 0 0 0 1.18 1.612c.471.381 1.076.59 1.813.629l.25.006H106L77.84 38zm-4.864 9c.631 2.444 1.277 4.51 1.937 6.198l.152.383L86 82H60l10.935-28.37c.324-.845.656-1.828.996-2.95.34-1.12.688-2.348 1.045-3.68z"/>
</svg>
