<svg xmlns="http://www.w3.org/2000/svg" width="146" height="146" viewBox="0 0 146 146">
    <path fill="#FFF" fill-rule="evenodd" d="M73 0c40.317 0 73 32.683 73 73s-32.683 73-73 73S0 113.317 0 73 32.683 0 73 0zM50.95 40.35h-8.5L68.7 83.5V112h9.65V83.5l26.3-43.15h-8.6c-1.25 0-1.25 0-2.025.725-.646.604-.646.604-1.066 1.26l-.159.265-16.35 27.85c-1 1.7-1 1.7-1.65 3.25-.65 1.55-.65 1.55-1.2 3.1-.55-1.5-.55-1.5-1.225-3.05-.579-1.329-.579-1.329-1.396-2.804l-.279-.496L54.3 42.6c-.55-.95-.55-.95-1.3-1.6-.675-.585-.675-.585-1.795-.643l-.255-.007z"/>
</svg>
