<svg xmlns="http://www.w3.org/2000/svg" width="146" height="146" viewBox="0 0 146 146">
    <path fill="#FFF" fill-rule="evenodd" d="M73 0c40.317 0 73 32.683 73 73s-32.683 73-73 73S0 113.317 0 73 32.683 0 73 0zM52.7 40.35h-9.65L66.7 75.2 42.05 112h9c1.05 0 1.05 0 1.625-.575.46-.46.46-.46.84-1l.185-.275L72.4 82.1c.44-.76.44-.76.752-1.584l.148-.416 19.2 30.05c.4.7.4.7 1.025 1.275.556.511.556.511 1.486.568l.239.007h9.6L80.3 74.75l23.75-34.4H94.8c-.75 0-.75 0-1.275.425-.437.354-.437.354-.823.9l-.152.225L74.9 68.1c-.6 1.071-.6 1.071-.943 1.996l-.107.304-18.7-28.7c-.4-.65-.4-.65-.9-1-.444-.311-.444-.311-1.323-.346l-.227-.004z"/>
</svg>
